# 3ds Max Wavefront OBJ Exporter v0.97b - (c)2007 guruware
# File Created: 08.03.2013 23:44:08

mtllib blocks.mtl

#
# object Box001
#

v  -19.6381 0.0000 2.8423
v  -26.1022 0.0000 -16.0843
v  -7.1756 0.0000 -22.5484
v  -0.7115 0.0000 -3.6218
v  -19.6381 20.0000 2.8423
v  -0.7115 20.0000 -3.6218
v  -7.1756 20.0000 -22.5484
v  -26.1022 20.0000 -16.0843
# 8 vertices

vn 0.0000 -1.0000 -0.0000
vn 0.0000 1.0000 -0.0000
vn 0.3232 0.0000 0.9463
vn 0.9463 0.0000 -0.3232
vn -0.3232 0.0000 -0.9463
vn -0.9463 0.0000 0.3232
# 6 vertex normals

vt 0.9995 0.0005 0.0005
vt 0.9995 0.9995 0.0005
vt 0.0005 0.9995 0.0005
vt 0.0005 0.0005 0.0005
vt 0.0005 0.0005 0.9995
vt 0.9995 0.0005 0.9995
vt 0.9995 0.9995 0.9995
vt 0.0005 0.9995 0.9995
# 8 texture coords

g Box001
usemtl Material__37
s 2
f 1/1/1 2/2/1 3/3/1 4/4/1 
usemtl Material__39
s 4
f 5/5/2 6/6/2 7/7/2 8/8/2 
usemtl Material__40
s 8
f 1/4/3 4/1/3 6/2/3 5/3/3 
usemtl Material__36
s 16
f 4/5/4 3/6/4 7/7/4 6/8/4 
usemtl Material__41
s 32
f 3/5/5 2/6/5 8/7/5 7/8/5 
usemtl Material__38
s 64
f 2/4/6 1/1/6 5/2/6 8/3/6 
# 6 polygons

#
# object Box002
#

v  0.0240 0.0000 -4.6334
v  7.9480 0.0000 -22.9967
v  26.3112 0.0000 -15.0727
v  18.3872 0.0000 3.2906
v  0.0240 20.0000 -4.6334
v  18.3872 20.0000 3.2906
v  26.3112 20.0000 -15.0727
v  7.9480 20.0000 -22.9967
# 8 vertices

vn 0.0000 -1.0000 -0.0000
vn 0.0000 1.0000 -0.0000
vn -0.3962 0.0000 0.9182
vn 0.9182 0.0000 0.3962
vn 0.3962 0.0000 -0.9182
vn -0.9182 0.0000 -0.3962
# 6 vertex normals

vt 0.9995 0.0005 0.0005
vt 0.9995 0.9995 0.0005
vt 0.0005 0.9995 0.0005
vt 0.0005 0.0005 0.0005
vt 0.0005 0.0005 0.9995
vt 0.9995 0.0005 0.9995
vt 0.9995 0.9995 0.9995
vt 0.0005 0.9995 0.9995
# 8 texture coords

g Box002
usemtl Material__37
s 2
f 9/9/7 10/10/7 11/11/7 12/12/7 
usemtl Material__39
s 4
f 13/13/8 14/14/8 15/15/8 16/16/8 
usemtl Material__40
s 8
f 9/12/9 12/9/9 14/10/9 13/11/9 
usemtl Material__36
s 16
f 12/13/10 11/14/10 15/15/10 14/16/10 
usemtl Material__41
s 32
f 11/13/11 10/14/11 16/15/11 15/16/11 
usemtl Material__38
s 64
f 10/12/12 9/9/12 13/10/12 16/11/12 
# 6 polygons

#
# object Box003
#

v  5.4969 0.0000 1.7622
v  -12.9177 0.0000 9.5661
v  -12.9177 20.0000 9.5661
v  5.4969 20.0000 1.7622
v  13.3008 0.0000 20.1768
v  13.3008 20.0000 20.1768
v  -5.1138 20.0000 27.9807
v  -5.1138 0.0000 27.9807
# 8 vertices

vn -0.3902 -0.0000 -0.9207
vn 0.3902 0.0000 0.9207
vn 0.9207 0.0000 -0.3902
vn -0.0000 1.0000 -0.0000
vn -0.9207 -0.0000 0.3902
vn 0.0000 -1.0000 -0.0000
# 6 vertex normals

vt 0.9995 0.0005 0.0005
vt 0.9995 0.9995 0.0005
vt 0.0005 0.9995 0.0005
vt 0.0005 0.0005 0.0005
vt 0.0005 0.0005 0.9995
vt 0.9995 0.0005 0.9995
vt 0.9995 0.9995 0.9995
vt 0.0005 0.9995 0.9995
# 8 texture coords

g Box003
usemtl Material__37
s 2
f 17/17/13 18/18/13 19/19/13 20/20/13 
usemtl Material__39
s 4
f 21/21/14 22/22/14 23/23/14 24/24/14 
usemtl Material__40
s 8
f 17/20/15 20/17/15 22/18/15 21/19/15 
usemtl Material__36
s 16
f 20/21/16 19/22/16 23/23/16 22/24/16 
usemtl Material__41
s 32
f 19/21/17 18/22/17 24/23/17 23/24/17 
usemtl Material__38
s 64
f 18/20/18 17/17/18 21/18/18 24/19/18 
# 6 polygons

#
# object Plane001
#

v  -150.0000 0.0000 -120.0000
v  -150.0000 0.0000 120.0000
v  150.0000 0.0000 120.0000
v  150.0000 0.0000 -120.0000
# 4 vertices

vn 0.0000 1.0000 -0.0000
# 1 vertex normals

vt 0.0000 1.0000 0.0000
vt 0.0000 0.0000 0.0000
vt 1.0000 0.0000 0.0000
vt 1.0000 1.0000 0.0000
# 4 texture coords

g Plane001
usemtl 07___Default
s 1
f 25/25/19 26/26/19 27/27/19 28/28/19 
# 1 polygons

